<?xml version="1.0" encoding="utf-8"?>
<!-- Generator: Adobe Illustrator 19.0.0, SVG Export Plug-In . SVG Version: 6.00 Build 0)  -->
<svg version="1.1" id="Livello_1" xmlns="http://www.w3.org/2000/svg" xmlns:xlink="http://www.w3.org/1999/xlink" x="0px" y="0px"
	 viewBox="9 258.3 498 124.7" style="enable-background:new 9 258.3 498 124.7;" xml:space="preserve">
<style type="text/css">
	.st0{fill:url(#SVGID_1_);}
	.st1{fill:url(#SVGID_2_);}
	.st2{fill:url(#SVGID_3_);}
	.st3{fill:url(#SVGID_4_);}
	.st4{fill:url(#SVGID_5_);}
	.st5{fill:url(#SVGID_6_);}
</style>
<g id="XMLID_57_">
	<g id="XMLID_58_">
		<g id="XMLID_59_">
			<path id="XMLID_73_" d="M154,354.9h-15.3v-64h27c16.6,0,26.2,7.7,26.2,21.5s-9.6,21.6-26.2,21.6H154V354.9z M165.1,321.7
				c8.4,0,11.9-3.1,11.9-9.1s-3.5-9.2-11.9-9.2H154v18.4L165.1,321.7L165.1,321.7z"/>
			<path id="XMLID_70_" d="M228.5,356.1c-18.6,0-32.8-13.5-32.8-33.2s14.2-33.2,32.8-33.2c18.7,0,32.9,13.5,32.9,33.2
				S247.2,356.1,228.5,356.1z M228.5,303.2c-10.4,0-17,7.8-17,19.7s6.6,19.7,17,19.7c10.5,0,17.1-7.8,17.1-19.7
				C245.5,311,238.9,303.2,228.5,303.2z"/>
			<path id="XMLID_67_" d="M309.8,354.9c-1.3-1.7-2.1-5.9-2.6-12.7c-0.5-7.2-3.8-9.5-10.2-9.5h-13v22.2h-15.1v-64h30.9
				c16.6,0,24.7,7.7,24.7,20c0,9.4-6,15.3-13.8,16.4c6.8,1.3,10.7,5.3,11.4,12.8c0.9,9.4,1.2,12.5,3.4,14.8L309.8,354.9L309.8,354.9
				z M297.4,320.8c8,0,12-2.3,12-8.6c0-5.7-4-8.8-12-8.8h-13.3v17.5L297.4,320.8L297.4,320.8z"/>
			<path id="XMLID_65_" d="M351.1,354.9v-51.3h-22.2v-12.7h60v12.7h-22.5v51.3H351.1z"/>
			<path id="XMLID_62_" d="M426,290.9l25.8,64h-16.5l-5.5-13.8H404l-5.4,13.8h-15.4l25.6-64H426z M408.5,329.5h16.9l-8.2-21h-0.4
				L408.5,329.5z"/>
			<path id="XMLID_60_" d="M472.6,290.9v51.3h32.5v12.7h-47.9v-64H472.6z"/>
		</g>
	</g>
	<g>
		<linearGradient id="SVGID_1_" gradientUnits="userSpaceOnUse" x1="-39.7804" y1="320.65" x2="114.7001" y2="320.65">
			<stop  offset="0" style="stop-color:#83C282"/>
			<stop  offset="1" style="stop-color:#4AAF4F"/>
		</linearGradient>
		<polygon class="st0" points="24.9,282.6 114.7,306.6 76.7,268.6 24.8,282.5 10.9,334.4 49.2,372.7 41.1,342.5 		"/>
		<linearGradient id="SVGID_2_" gradientUnits="userSpaceOnUse" x1="49.2" y1="339.65" x2="247.7851" y2="339.65">
			<stop  offset="0" style="stop-color:#83C282"/>
			<stop  offset="1" style="stop-color:#4AAF4F"/>
		</linearGradient>
		<polygon class="st1" points="71.1,350.6 49.2,372.7 100.8,358.5 114.7,306.6 		"/>
		
			<linearGradient id="SVGID_3_" gradientUnits="userSpaceOnUse" x1="-483.1585" y1="100.9535" x2="-375.6772" y2="100.9535" gradientTransform="matrix(-0.7071 -0.7071 -0.7071 0.7071 -163.9402 -60.0425)">
			<stop  offset="0" style="stop-color:#83C282"/>
			<stop  offset="1" style="stop-color:#4AAF4F"/>
		</linearGradient>
		<polygon class="st2" points="41.1,342.5 71.1,350.6 114.7,306.6 24.9,282.6 		"/>
		
			<linearGradient id="SVGID_4_" gradientUnits="userSpaceOnUse" x1="-456.7124" y1="100.9535" x2="-375.8186" y2="100.9535" gradientTransform="matrix(-0.7071 -0.7071 -0.7071 0.7071 -163.9402 -60.0425)">
			<stop  offset="0" style="stop-color:#83C282"/>
			<stop  offset="1" style="stop-color:#4AAF4F"/>
		</linearGradient>
		<polygon class="st3" points="41.1,342.5 71.1,350.6 114.7,306.6 24.9,282.6 		"/>
		
			<linearGradient id="SVGID_5_" gradientUnits="userSpaceOnUse" x1="-483.1585" y1="139.693" x2="-402.5475" y2="139.693" gradientTransform="matrix(-0.7071 -0.7071 -0.7071 0.7071 -163.9402 -60.0425)">
			<stop  offset="0" style="stop-color:#83C282"/>
			<stop  offset="1" style="stop-color:#4AAF4F"/>
		</linearGradient>
		<polygon class="st4" points="41.1,342.5 49.2,372.7 71.1,350.6 		"/>
		
			<linearGradient id="SVGID_6_" gradientUnits="userSpaceOnUse" x1="-456.7124" y1="139.693" x2="-375.8186" y2="139.693" gradientTransform="matrix(-0.7071 -0.7071 -0.7071 0.7071 -163.9402 -60.0425)">
			<stop  offset="0" style="stop-color:#83C282"/>
			<stop  offset="1" style="stop-color:#4AAF4F"/>
		</linearGradient>
		<polygon class="st5" points="41.1,342.5 49.2,372.7 71.1,350.6 		"/>
	</g>
</g>
</svg>
